<svg width="60" height="59" viewBox="0 0 60 59" fill="none" xmlns="http://www.w3.org/2000/svg">
<g id="Layer_1" clip-path="url(#clip0_111_2994)">
<path id="Vector" d="M53.6832 17.5338C54.0197 17.9055 54.3561 18.2773 54.7014 18.6402C55.5867 19.5518 55.6487 20.0652 54.9581 21.1627C54.3915 21.7203 53.8337 22.2867 53.2494 22.8266C52.851 23.1984 52.7979 23.5613 53.0635 24.0392C53.6744 25.1367 54.1613 26.2962 54.4978 27.5087C54.6837 28.1726 55.0555 28.4204 55.7107 28.323C56.4367 28.3319 57.1627 28.323 57.8887 28.3673C58.9599 28.4204 59.4823 28.9603 59.4911 30.0224C59.5 32.5892 59.5 35.1559 59.4911 37.7227C59.4911 38.829 58.9599 39.3512 57.8267 39.3689C57.0033 39.3866 56.1799 39.3866 55.3565 39.3689C54.9581 39.3689 54.7279 39.5282 54.6128 39.9088C54.2056 41.2807 53.6567 42.5995 52.9749 43.8563C52.7625 44.2369 52.8333 44.529 53.1343 44.8211C53.7275 45.3964 54.3118 45.9805 54.8785 46.5735C55.6133 47.3347 55.6399 48.1313 54.905 48.8836C53.09 50.7335 51.2574 52.5656 49.407 54.38C48.6544 55.1147 47.8753 55.0881 47.0962 54.3535C46.5207 53.8047 45.9452 53.2383 45.3963 52.663C45.0599 52.3089 44.7411 52.247 44.2985 52.4859C43.0855 53.1498 41.8018 53.672 40.4737 54.0614C40.0222 54.1942 39.854 54.4685 39.8628 54.9111C39.8717 55.7608 39.8806 56.6105 39.854 57.4513C39.8186 58.3895 39.2962 58.9648 38.3577 58.9736C35.6928 59.0002 33.0279 59.0002 30.363 58.9736C29.4688 58.9648 28.9464 58.3983 28.9022 57.4867C28.8667 56.7344 28.8667 55.982 28.849 55.2386C28.911 54.7341 28.9376 54.2561 28.309 54.0702C26.9632 53.6631 25.6706 53.1321 24.4311 52.4771C24.0327 52.2647 23.6963 52.3266 23.3864 52.6453C22.8021 53.2471 22.2 53.849 21.6068 54.4508C20.5444 55.1147 20.0398 55.0615 19.1279 54.1853C18.7649 53.8401 18.393 53.4949 18.03 53.1586C16.7374 51.8487 15.4448 50.5387 14.1522 49.22C13.0543 48.1048 13.0543 47.4144 14.1345 46.3169C14.6303 45.8212 15.1172 45.3167 15.6218 44.8211C15.9229 44.529 15.9671 44.2192 15.7635 43.8386C15.0995 42.6261 14.5771 41.3427 14.1787 40.0239C14.0371 39.5636 13.7626 39.3512 13.2757 39.3601C12.5231 39.3689 11.7706 39.3601 11.018 39.3601C9.75195 39.3335 9.25615 38.8467 9.25615 37.581C9.2473 35.1117 9.2473 32.6423 9.25615 30.164C9.25615 28.8983 9.79622 28.3761 11.08 28.3407C11.806 28.323 12.532 28.323 13.258 28.3319C13.736 28.3319 14.0282 28.1549 14.1699 27.6858C14.5594 26.3758 15.0995 25.1367 15.7369 23.933C15.9494 23.5258 15.9052 23.2072 15.5776 22.8974C14.9844 22.3221 14.4001 21.7468 13.8334 21.145C13.1517 20.4103 13.134 19.5872 13.8334 18.8791C15.6661 17.0116 17.5165 15.1618 19.3846 13.3296C20.0929 12.6304 20.8543 12.657 21.5714 13.3385C22.1912 13.9226 22.7844 14.5245 23.3776 15.1352C23.6697 15.4361 23.9619 15.5069 24.3514 15.2945C25.5644 14.6219 26.8393 14.0997 28.1673 13.7014C28.6631 13.5509 28.8845 13.2588 28.8756 12.7543C28.8667 11.9754 28.8756 11.2054 28.8845 10.4265C28.911 9.35558 29.4068 8.75372 30.4604 8.73602C33.0545 8.69176 35.6486 8.70061 38.2426 8.73602C39.2697 8.75372 39.792 9.32903 39.8274 10.3557C39.854 11.1523 39.854 11.9577 39.8451 12.7543C39.8451 13.2677 40.0576 13.5509 40.5534 13.7102C41.2883 13.9492 42.0054 14.2501 42.7402 14.5068C43.4928 14.7723 44.1568 15.5423 44.9182 15.3653C45.6885 15.1883 46.1489 14.3209 46.7332 13.7456C47.9815 12.5242 48.5305 12.5242 49.77 13.7279C51.0714 14.9936 52.2755 16.3566 53.6655 17.5338H53.6832ZM34.4002 19.5695C26.4763 19.5695 20.0663 25.9333 20.0575 33.8106C20.0486 41.7321 26.4586 48.1844 34.3648 48.211C42.1913 48.2287 48.6987 41.7498 48.7164 33.9168C48.7341 25.9864 42.3418 19.5695 34.4002 19.5695Z" fill="#575A5B"/>
<path id="Vector_2" d="M53.6833 17.5333C52.2933 16.3561 51.0892 14.9931 49.7877 13.7274C48.5482 12.5237 47.9993 12.5237 46.751 13.7451C46.1666 14.3204 45.7062 15.1878 44.936 15.3648C44.1746 15.5419 43.5106 14.7718 42.758 14.5063C42.0232 14.2496 41.3149 13.9487 40.5712 13.7097C40.0842 13.5504 39.8629 13.2672 39.8629 12.7538C39.8718 11.9573 39.8718 11.1518 39.8452 10.3552C39.8098 9.33739 39.2874 8.75323 38.2604 8.73553C35.6663 8.70013 33.0722 8.70013 30.4781 8.73553C29.4246 8.75323 28.9288 9.35509 28.9022 10.426C28.8845 11.2049 28.8845 11.975 28.8934 12.7538C28.8934 13.2672 28.6809 13.5593 28.1851 13.7009C26.8571 14.0992 25.5821 14.6214 24.3692 15.294C23.9797 15.5065 23.6875 15.4268 23.3953 15.1347C22.8021 14.5329 22.2089 13.9221 21.5892 13.338C20.8721 12.6565 20.1107 12.6299 19.4024 13.3291C17.5343 15.1613 15.6839 17.0111 13.8512 18.8786C13.1518 19.5867 13.1695 20.4098 13.8512 21.1445C14.409 21.7463 15.0022 22.3216 15.5953 22.8969C15.9229 23.2156 15.9672 23.5342 15.7547 23.9325C15.1173 25.1362 14.5772 26.3753 14.1876 27.6853C14.046 28.1544 13.7538 28.3402 13.2757 28.3314C12.5497 28.3225 11.8237 28.3225 11.0977 28.3402C9.80513 28.3756 9.27392 28.9067 9.27392 30.1635C9.26506 32.6329 9.26506 35.1023 9.27392 37.5806C9.27392 38.8462 9.77857 39.333 11.0358 39.3596C11.7883 39.3773 12.5409 39.3773 13.2934 39.3596C13.7804 39.3596 14.0548 39.5632 14.1965 40.0234C14.5949 41.351 15.1261 42.6256 15.7813 43.8381C15.9849 44.2099 15.9406 44.5197 15.6396 44.8206C15.135 45.3162 14.648 45.8119 14.1522 46.3164C13.0721 47.4139 13.0721 48.0954 14.1699 49.2195C15.4625 50.5294 16.7552 51.8393 18.0478 53.1581C16.3302 52.7244 14.8162 51.8305 13.3643 50.8746C5.76792 45.8827 1.42083 38.8639 0.606301 29.7829C0.163623 24.8087 1.08439 20.0381 3.26236 15.5153C3.42173 15.1878 3.58109 14.8603 3.8644 14.6125C4.51071 14.6214 5.13046 14.5417 5.47575 13.8956C5.82104 13.2583 5.60855 12.6919 5.219 12.152C10.1239 5.18633 16.7817 1.05296 25.2811 0.159023C33.0634 -0.655259 39.9957 1.57516 46.0073 6.61132C49.2565 9.33739 51.7001 12.6742 53.4 16.5597C53.5416 16.8695 53.6567 17.1881 53.6921 17.5333H53.6833Z" fill="#DCDEE0"/>
<path id="Vector_3" d="M21.6245 54.4595C22.2177 53.8576 22.8109 53.2646 23.4041 52.6539C23.7139 52.3353 24.0504 52.2733 24.4488 52.4857C25.6883 53.1407 26.9809 53.6717 28.3266 54.0789C28.9552 54.2736 28.9287 54.7515 28.8667 55.2472C26.432 55.2029 24.0238 54.902 21.6334 54.4595H21.6245Z" fill="#DCDEE0"/>
<path id="Vector_4" d="M55.7108 28.3142C55.0556 28.4204 54.6837 28.1637 54.4978 27.4999C54.1614 26.2873 53.6656 25.1367 53.0635 24.0303C52.7979 23.5524 52.8511 23.1807 53.2495 22.8178C53.8338 22.2779 54.3916 21.7114 54.9582 21.1538C55.4717 23.5081 55.755 25.8979 55.7108 28.3142Z" fill="#DCDEE0"/>
<path id="Vector_5" d="M54.5863 4.03603C55.3123 4.01832 55.9409 4.62018 55.9586 5.34596C55.9852 6.09828 55.3477 6.7444 54.5952 6.73555C53.8692 6.73555 53.2583 6.12483 53.2583 5.39021C53.2583 4.66444 53.8603 4.04488 54.5863 4.03603Z" fill="#575A5B"/>
<path id="Vector_6" d="M5.21873 12.1613C5.61714 12.6923 5.82077 13.2677 5.47548 13.9049C5.13019 14.5422 4.51044 14.6307 3.86413 14.6218C3.73133 14.5156 3.59853 14.4183 3.47458 14.3032C2.94337 13.7987 2.82827 13.1172 3.18241 12.5419C3.58967 11.8869 4.26254 11.763 5.21873 12.1701V12.1613Z" fill="#575A5B"/>
<path id="Vector_7" d="M8.28249 52.9106C8.78714 52.9637 9.09702 53.247 9.09702 53.7515C9.09702 54.256 8.76944 54.5658 8.26479 54.5658C7.76013 54.5658 7.44141 54.2471 7.44141 53.7426C7.44141 53.2381 7.76899 52.9726 8.27364 52.9106H8.28249Z" fill="#575A5B"/>
<path id="Vector_8" d="M47.8574 1.6815C47.8308 2.23026 47.5829 2.54889 47.0606 2.55774C46.5471 2.56659 46.2372 2.28336 46.2195 1.77886C46.2018 1.27436 46.5028 0.955732 47.0075 0.93803C47.5298 0.911477 47.7777 1.23896 47.8574 1.6815Z" fill="#575A5B"/>
<path id="Vector_9" d="M4.65237 6.49679C4.1123 6.45253 3.79357 6.18701 3.80243 5.67366C3.80243 5.16916 4.1123 4.85938 4.62581 4.85938C5.13931 4.85938 5.44033 5.17801 5.44918 5.67366C5.44918 6.18701 5.1216 6.43483 4.66122 6.49679H4.65237Z" fill="#575A5B"/>
<path id="Vector_10" d="M34.4004 19.5693C42.342 19.5693 48.7431 25.9862 48.7165 33.9166C48.6988 41.7497 42.1915 48.2285 34.3649 48.2108C26.4587 48.1843 20.0488 41.732 20.0576 33.8104C20.0665 25.9243 26.4764 19.5605 34.4004 19.5693ZM34.3561 45.2281C40.6952 45.2281 45.8568 40.1388 45.8037 33.837C45.7595 27.5263 40.7484 22.5167 34.4004 22.4724C28.1055 22.4193 22.9793 27.5351 22.9527 33.7927C22.9262 40.1211 28.017 45.2192 34.3561 45.2281Z" fill="#DCDEE0"/>
<path id="Vector_11" d="M34.3561 45.2282C28.017 45.2282 22.9262 40.1124 22.9527 33.7929C22.9793 27.5264 28.1055 22.4195 34.4004 22.4726C40.7484 22.5257 45.7595 27.5264 45.8037 33.8371C45.848 40.1478 40.6952 45.2371 34.3561 45.2282ZM36.2242 32.6422C36.2242 33.368 36.481 33.8371 37.0476 34.0849C37.6496 34.3505 38.2074 34.2354 38.6501 33.7663C39.562 32.8016 40.465 31.8191 41.3327 30.8101C41.855 30.2083 41.8905 29.5267 41.4035 28.9426C40.4916 27.8716 39.5443 26.8361 38.5615 25.8359C38.0392 25.3049 37.322 25.3226 36.7731 25.7474C36.2153 26.1722 36.0648 26.9069 36.4013 27.5795C36.782 28.3407 36.7731 28.3761 35.8701 28.3761C33.5947 28.3761 31.3193 28.3761 29.0351 28.385C27.8045 28.385 26.9545 28.9957 26.9545 29.8454C26.9545 30.7393 27.7071 31.2704 29.0351 31.2792C31.2397 31.2881 33.4442 31.2792 35.6487 31.2881C35.8701 31.2881 36.0825 31.2881 36.3039 31.3058C36.6226 31.3412 36.7377 31.5005 36.5518 31.7926C36.3659 32.0846 36.2153 32.3856 36.2242 32.6334V32.6422ZM36.4632 36.4747C35.1795 36.4747 33.8957 36.4747 32.612 36.4747C32.1781 36.4747 31.8594 36.4481 32.2313 35.8817C32.7536 35.0851 32.6297 34.2885 31.9834 33.8194C31.3902 33.3857 30.5579 33.5008 29.9647 34.138C29.1237 35.0408 28.2914 35.9525 27.4769 36.8818C26.9457 37.4925 26.9014 38.1652 27.3707 38.8113C28.1852 39.9531 29.2033 40.9355 30.1949 41.9091C30.7084 42.4136 31.5407 42.3871 32.063 41.9534C32.5942 41.5108 32.7182 40.7585 32.3641 40.1035C31.9568 39.3512 31.9568 39.3424 32.851 39.3424C35.2237 39.3424 37.5965 39.3424 39.9692 39.3424C41.0936 39.3424 41.7045 38.829 41.7134 37.9351C41.7311 37.0146 41.1025 36.4835 39.9427 36.4747C38.7829 36.4658 37.6142 36.4747 36.4544 36.4747H36.4632Z" fill="#575A5B"/>
<path id="Vector_12" d="M36.2242 32.6421C36.2154 32.3943 36.3659 32.0933 36.5518 31.8013C36.7378 31.5092 36.6227 31.341 36.3039 31.3145C36.0914 31.2968 35.8701 31.2968 35.6488 31.2968C33.4442 31.2968 31.2397 31.2968 29.0352 31.2879C27.7071 31.2879 26.9546 30.748 26.9546 29.8541C26.9546 29.0044 27.8045 28.4025 29.0352 28.3937C31.3105 28.3848 33.5859 28.3937 35.8701 28.3848C36.7643 28.3848 36.782 28.3494 36.4013 27.5882C36.0649 26.9156 36.2154 26.1898 36.7732 25.7561C37.3221 25.3313 38.0481 25.3136 38.5616 25.8446C39.5443 26.8448 40.4917 27.8803 41.4036 28.9513C41.8905 29.5266 41.8551 30.2081 41.3327 30.8188C40.4651 31.8278 39.562 32.8103 38.6501 33.775C38.2163 34.2353 37.6497 34.3592 37.0476 34.0936C36.481 33.837 36.2242 33.3679 36.2242 32.6509V32.6421Z" fill="#DCDEE0"/>
<path id="Vector_13" d="M36.463 36.4745C37.6228 36.4745 38.7914 36.4745 39.9512 36.4745C41.1022 36.4834 41.7397 37.0144 41.722 37.9349C41.7042 38.8289 41.0934 39.3422 39.9778 39.3422C37.6051 39.3511 35.2323 39.3422 32.8596 39.3422C31.9654 39.3422 31.9654 39.3422 32.3726 40.1034C32.7268 40.7584 32.6028 41.5107 32.0716 41.9532C31.5492 42.3869 30.717 42.4135 30.2035 41.909C29.203 40.9265 28.1937 39.9529 27.3792 38.8112C26.9188 38.1651 26.9542 37.4924 27.4855 36.8817C28.3 35.9523 29.1234 35.0318 29.9733 34.1379C30.5753 33.5006 31.4076 33.3856 31.9919 33.8193C32.6382 34.2972 32.7622 35.085 32.2398 35.8815C31.868 36.4568 32.1778 36.4745 32.6205 36.4745C33.9043 36.4745 35.188 36.4745 36.4718 36.4745H36.463Z" fill="#DCDEE0"/>
</g>
<defs>
<clipPath id="clip0_111_2994">
<rect width="59" height="59" fill="white" transform="translate(0.5)"/>
</clipPath>
</defs>
</svg>
