<svg width="25" height="24" viewBox="0 0 25 24" fill="none" xmlns="http://www.w3.org/2000/svg">
<g id="coins-hand">
<path id="Icon" d="M13.9899 8.35186C13.4175 8.75995 12.717 9 11.9604 9C10.0275 9 8.46045 7.433 8.46045 5.5C8.46045 3.567 10.0275 2 11.9604 2C13.2134 2 14.3126 2.65842 14.931 3.64814M6.46045 20.0872H9.07074C9.41108 20.0872 9.74933 20.1277 10.0793 20.2086L12.8373 20.8789C13.4358 21.0247 14.0592 21.0388 14.6639 20.9214L17.7134 20.3281C18.519 20.1712 19.26 19.7854 19.8408 19.2205L21.9983 17.1217C22.6145 16.5234 22.6145 15.5524 21.9983 14.9531C21.4436 14.4134 20.5652 14.3527 19.9376 14.8103L17.423 16.6449C17.0629 16.9081 16.6248 17.0498 16.1741 17.0498H13.7459L15.2915 17.0498C16.1627 17.0498 16.8683 16.3633 16.8683 15.5159V15.2091C16.8683 14.5055 16.376 13.892 15.6745 13.7219L13.289 13.1417C12.9008 13.0476 12.5033 13 12.1036 13C11.1388 13 9.39234 13.7988 9.39234 13.7988L6.46045 15.0249M20.4604 6.5C20.4604 8.433 18.8934 10 16.9604 10C15.0275 10 13.4604 8.433 13.4604 6.5C13.4604 4.567 15.0275 3 16.9604 3C18.8934 3 20.4604 4.567 20.4604 6.5ZM2.46045 14.6L2.46045 20.4C2.46045 20.9601 2.46045 21.2401 2.56944 21.454C2.66532 21.6422 2.8183 21.7951 3.00646 21.891C3.22037 22 3.5004 22 4.06045 22H4.86045C5.4205 22 5.70053 22 5.91444 21.891C6.1026 21.7951 6.25558 21.6422 6.35146 21.454C6.46045 21.2401 6.46045 20.9601 6.46045 20.4V14.6C6.46045 14.0399 6.46045 13.7599 6.35146 13.546C6.25558 13.3578 6.1026 13.2049 5.91444 13.109C5.70053 13 5.4205 13 4.86045 13L4.06045 13C3.5004 13 3.22037 13 3.00646 13.109C2.8183 13.2049 2.66532 13.3578 2.56944 13.546C2.46045 13.7599 2.46045 14.0399 2.46045 14.6Z" stroke="#EFF2F4" stroke-width="2" stroke-linecap="round" stroke-linejoin="round"/>
</g>
</svg>
