<svg width="25" height="24" viewBox="0 0 25 24" fill="none" xmlns="http://www.w3.org/2000/svg">
<g id="Exchange-Icon" clip-path="url(#clip0_111_2518)">
<path id="Vector" d="M22.4604 12C22.4604 17.523 17.9834 22 12.4604 22C6.93745 22 2.46045 17.523 2.46045 12C2.46045 6.477 6.93745 2 12.4604 2C17.9834 2 22.4604 6.477 22.4604 12ZM20.4604 12C20.4604 9.87827 19.6176 7.84344 18.1173 6.34315C16.617 4.84285 14.5822 4 12.4604 4C10.3387 4 8.30389 4.84285 6.8036 6.34315C5.3033 7.84344 4.46045 9.87827 4.46045 12C4.46045 14.1217 5.3033 16.1566 6.8036 17.6569C8.30389 19.1571 10.3387 20 12.4604 20C14.5822 20 16.617 19.1571 18.1173 17.6569C19.6176 16.1566 20.4604 14.1217 20.4604 12ZM13.4604 17V8H15.4604V12L18.4604 12L13.4604 17ZM9.46045 12H6.46045L11.4604 7L11.4604 16H9.46045V12Z" fill="#FA0513"/>
</g>
<defs>
<clipPath id="clip0_111_2518">
<rect width="24" height="24" fill="white" transform="matrix(0 -1 1 0 0.460449 24)"/>
</clipPath>
</defs>
</svg>
