<svg width="70" height="70" viewBox="0 0 70 70" fill="none" xmlns="http://www.w3.org/2000/svg">
<path d="M43.6224 43.1284L49.0425 48.5485C45.5681 52.023 40.7811 54.1694 35.4922 54.1694V46.5025C38.6655 46.5025 41.5377 45.2131 43.6224 43.1284Z" fill="#FF0007"/>
<path d="M35.4922 46.5025V54.1694C30.2111 54.1694 25.4163 52.023 21.9419 48.5485L27.362 43.1284C29.4467 45.2131 32.3266 46.5025 35.4922 46.5025Z" fill="#F95065"/>
<path d="M27.3642 43.1282L21.9441 48.5484C18.4697 45.0739 16.3232 40.2869 16.3232 34.998H23.9902C23.9979 38.1714 25.2873 41.0436 27.3642 43.1282Z" fill="#FF6E79"/>
<path d="M46.9981 34.998H54.6651C54.6651 40.2792 52.5186 45.0739 49.0442 48.5484L43.624 43.1282C45.7087 41.0436 46.9981 38.1714 46.9981 34.998Z" fill="#C12530"/>
<path d="M35.4922 23.499C32.3189 23.499 29.4467 24.7884 27.362 26.8731L21.9419 21.4529C25.4163 17.9785 30.2033 15.832 35.4922 15.832V23.499Z" fill="#FF0007"/>
<path d="M35.4922 23.499V15.832C40.7733 15.832 45.5681 17.9785 49.0425 21.4529L43.6224 26.8731C41.5377 24.7884 38.6655 23.499 35.4922 23.499Z" fill="#F95065"/>
<path d="M43.624 26.8659L49.0442 21.4458C52.5186 24.9202 54.6651 29.7072 54.6651 34.9961H46.9981C46.9981 31.8305 45.7087 28.9506 43.624 26.8659Z" fill="#FF6E79"/>
<path d="M23.9966 34.9961H16.3296C16.3296 29.715 18.476 24.9202 21.9505 21.4458L27.3706 26.8659C25.286 28.9506 23.9966 31.8305 23.9966 34.9961Z" fill="#C12530"/>
<path d="M49.0425 48.5469L54.4627 53.967C49.6062 58.8235 42.8966 61.8347 35.4922 61.8347V54.1678C40.7811 54.1678 45.5681 52.0136 49.0425 48.5469Z" fill="#C12530"/>
<path d="M35.4934 54.1678V61.8347C28.0967 61.8347 21.3872 58.8235 16.5229 53.967L21.9431 48.5469C25.4175 52.0136 30.2123 54.1678 35.4934 54.1678Z" fill="#FF0007"/>
<path d="M21.9514 21.4543L16.5312 16.0342C21.3878 11.1777 28.0973 8.1665 35.5017 8.1665V15.8334C30.2128 15.8334 25.4181 17.9799 21.9514 21.4543Z" fill="#C12530"/>
<path d="M21.9499 21.4548C18.4755 24.9292 16.329 29.7163 16.329 35.0051H8.66211C8.66211 27.6084 11.6733 20.8989 16.5298 16.0347L21.9499 21.4548Z" fill="#FF6E79"/>
<path d="M21.9499 48.5484L16.5298 53.9685C11.6733 49.112 8.66211 42.4025 8.66211 34.998H16.329C16.329 40.2869 18.4755 45.0739 21.9499 48.5484Z" fill="#F95065"/>
<path d="M54.6634 34.998H62.3303C62.3303 42.3948 59.3191 49.1043 54.4626 53.9685L49.0425 48.5484C52.5092 45.0739 54.6634 40.2869 54.6634 34.998Z" fill="#FF6E79"/>
<path d="M35.4922 15.8334V8.1665C42.8889 8.1665 49.5984 11.1777 54.4627 16.0342L49.0425 21.4543C45.5681 17.9799 40.7811 15.8334 35.4922 15.8334Z" fill="#FF0007"/>
<path d="M49.0425 21.4548L54.4626 16.0347C59.3191 20.8912 62.3303 27.6007 62.3303 35.0051H54.6634C54.6634 29.7163 52.5092 24.9215 49.0425 21.4548Z" fill="#F95065"/>
<path d="M54.4642 53.9653L59.8843 59.3855C53.6381 65.6318 45.0137 69.5 35.5015 69.5V61.833C42.8905 61.833 49.6 58.8218 54.4642 53.9653Z" fill="#FF6E79"/>
<path d="M8.65522 34.998C8.65522 42.3948 11.6664 49.1043 16.5229 53.9685L11.1028 59.3887C4.8565 53.1424 0.988281 44.518 0.988281 35.0058H8.65522V34.998Z" fill="#FF0007"/>
<path d="M8.65522 34.9996H0.988281C0.988281 25.4873 4.8565 16.863 11.1028 10.6167L16.5229 16.0368C11.6664 20.8933 8.65522 27.6029 8.65522 34.9996Z" fill="#F95065"/>
<path d="M35.4927 61.833V69.5C25.9805 69.5 17.3561 65.6318 11.1099 59.3855L16.53 53.9653C21.3865 58.8218 28.096 61.833 35.4927 61.833Z" fill="#C12530"/>
<path d="M35.4922 8.16694V0.5C45.0044 0.5 53.6288 4.36822 59.8751 10.6145L54.4549 16.0346C49.5984 11.1704 42.8889 8.16694 35.4922 8.16694Z" fill="#C12530"/>
<path d="M62.333 34.998H70C70 44.5103 66.1317 53.1347 59.8855 59.3809L54.4653 53.9608C59.3218 49.1043 62.333 42.3948 62.333 34.998Z" fill="#F95065"/>
<path d="M16.53 16.0346L11.1099 10.6145C17.3561 4.36822 25.9805 0.5 35.4927 0.5V8.16694C28.096 8.16694 21.3865 11.1704 16.53 16.0346Z" fill="#FF6E79"/>
<path d="M54.4653 16.0368L59.8855 10.6167C66.1317 16.863 70 25.4873 70 34.9996H62.333C62.333 27.6029 59.3218 20.8933 54.4653 16.0368Z" fill="#FF0007"/>
<path d="M35.5019 39.6122C38.1201 39.6122 40.2426 37.4897 40.2426 34.8715C40.2426 32.2533 38.1201 30.1309 35.5019 30.1309C32.8837 30.1309 30.7612 32.2533 30.7612 34.8715C30.7612 37.4897 32.8837 39.6122 35.5019 39.6122Z" fill="#FF0007"/>
<path d="M35.9883 54.5C15.7492 53.1862 8.63521 38.2258 8.06091 35.9485C7.4866 33.6712 10.3581 24.9093 15.2647 18.8203C16.7152 17.0189 17.6061 17.3313 18.4897 18.1634C19.3732 18.9955 22.1122 21.7998 23.7924 23.3764C25.4726 24.9531 26.5329 25.5662 28.565 25.9165C30.5972 26.2669 33.426 26.4421 35.9883 26.4421C38.5506 26.4421 41.3794 26.2669 43.4115 25.9165C45.4437 25.5662 46.5054 24.9531 48.1841 23.3764C49.8629 21.7998 52.6019 18.9955 53.4869 18.1634C54.3704 17.3313 55.2613 17.0189 56.7133 18.8203C61.6184 24.9093 64.49 33.6712 63.9157 35.9485C63.3414 38.2258 56.2273 53.1862 35.9883 54.5Z" fill="black"/>
<path d="M20.3899 30.5C18.9229 31.7183 17.9883 33.5581 17.9883 35.6175C17.9883 39.2866 20.9558 42.2607 24.6168 42.2607C27.7107 42.2607 30.3004 40.1342 31.0327 37.2634L20.3886 30.5H20.3899Z" fill="white"/>
<path d="M49.6755 30.5C51.1425 31.7183 52.0771 33.5581 52.0771 35.6175C52.0771 39.2866 49.1096 42.2607 45.4485 42.2607C42.3547 42.2607 39.7636 40.1342 39.0327 37.2634L49.6755 30.5Z" fill="white"/>
</svg>
