<svg width="25" height="24" viewBox="0 0 25 24" fill="none" xmlns="http://www.w3.org/2000/svg">
<g id="plus-square">
<path id="Icon" d="M12.4604 8V16M8.46045 12H16.4604M8.26045 21H16.6604C18.3406 21 19.1807 21 19.8224 20.673C20.3869 20.3854 20.8458 19.9265 21.1335 19.362C21.4604 18.7202 21.4604 17.8802 21.4604 16.2V7.8C21.4604 6.11984 21.4604 5.27976 21.1335 4.63803C20.8458 4.07354 20.3869 3.6146 19.8224 3.32698C19.1807 3 18.3406 3 16.6604 3H8.26045C6.58029 3 5.74021 3 5.09848 3.32698C4.53399 3.6146 4.07505 4.07354 3.78743 4.63803C3.46045 5.27976 3.46045 6.11984 3.46045 7.8V16.2C3.46045 17.8802 3.46045 18.7202 3.78743 19.362C4.07505 19.9265 4.53399 20.3854 5.09848 20.673C5.74021 21 6.58029 21 8.26045 21Z" stroke="#EFF2F4" stroke-width="2" stroke-linecap="round" stroke-linejoin="round"/>
</g>
</svg>
